<svg width="80" height="80" viewBox="0 0 80 80" fill="none" xmlns="http://www.w3.org/2000/svg">
<rect width="80" height="80" rx="12" fill="white"/>
<path d="M20.1999 11.0002C17.1221 11.0002 14.6279 13.7022 14.6279 17.0357C14.6279 20.3692 17.1221 23.0712 20.1999 23.0712C23.2776 23.0712 25.7718 20.3692 25.7718 17.0357C25.7718 13.7022 23.2776 11.0002 20.1999 11.0002Z" fill="#00B26B"/>
<path d="M47.2541 24.8438C37.2524 24.8438 29.1401 33.6308 29.1401 44.4657C29.1401 44.4748 29.1401 44.4793 29.1401 44.4883V69H39.3308V44.4657C39.3308 39.7249 42.8789 35.8817 47.2541 35.8817C51.6294 35.8817 55.1816 39.7249 55.1816 44.4657V69H65.3723V44.4657C65.3723 33.6308 57.2601 24.8438 47.2541 24.8438Z" fill="#00B26B"/>
<path d="M15.1025 69H25.2932V24.8438C19.5953 24.8438 15.1025 26.4767 15.1025 26.4767V69Z" fill="#00B26B"/>
</svg>
