<svg width="80" height="80" viewBox="0 0 80 80" fill="none" xmlns="http://www.w3.org/2000/svg">
<rect width="80" height="80" rx="12" fill="white"/>
<path d="M10.9204 22.9163C10.9204 16.2888 16.293 10.9163 22.9204 10.9163H57.0869C63.7143 10.9163 69.0869 16.2888 69.0869 22.9163V57.0813C69.0869 63.7087 63.7143 69.0813 57.0869 69.0813H22.9204C16.293 69.0813 10.9204 63.7087 10.9204 57.0813V22.9163Z" fill="url(#paint0_linear_209_339)"/>
<path d="M38.5394 0.556885C36.6177 0.556885 32.9323 0.660122 28.2407 1.28013C20.9159 2.25099 14.2765 4.84438 9.41409 9.41595C4.8424 14.2785 2.25107 20.9161 1.28071 28.242C0.351445 35.2372 0.579387 40.0014 0.579387 40.0014C0.579387 40.0014 0.351406 44.7638 1.28071 51.7607C2.2516 59.0853 4.8426 65.7258 9.41409 70.5868C14.2768 75.1584 20.9159 77.7516 28.2407 78.7226C32.9271 79.3444 36.6093 79.4458 38.5341 79.4458C39.48 79.4458 40.0002 79.4222 40.0002 79.4222C40.0002 79.4222 40.521 79.4458 41.4686 79.4458C43.3903 79.4458 47.0758 79.3445 51.7621 78.7226C59.0881 77.7517 65.7255 75.1583 70.5866 70.5868C75.1583 65.726 77.7536 59.0853 78.7227 51.7607C79.6503 44.7636 79.4216 40.0014 79.4216 40.0014C79.4216 40.0014 79.6503 35.2374 78.7227 28.242C77.7534 20.9161 75.1583 14.2782 70.5866 9.41595C65.7256 4.84438 59.0888 2.25113 51.7621 1.28013C47.0707 0.660168 43.3828 0.556885 41.4613 0.556885C40.5187 0.556885 40.0002 0.580481 40.0002 0.580481C40.0002 0.580481 39.482 0.556885 38.5394 0.556885ZM40.0006 13.9672C43.8308 13.9672 46.9455 17.0821 46.9455 20.912C46.9455 23.414 45.6165 25.6097 43.6277 26.8318C42.4292 27.5683 41.3907 28.7262 41.3907 30.133C41.3907 31.5997 42.4947 32.8 43.8347 33.3963C47.1373 34.866 49.4466 38.1709 49.4466 42.0146C49.4466 47.2229 45.2088 51.4608 40.0002 51.4608C34.7915 51.4608 30.5564 47.2231 30.5564 42.0146C30.5564 41.1128 30.0608 40.2475 29.2031 39.9688L28.2674 39.6648C26.9279 39.2296 25.5042 39.8595 24.4321 40.7727C23.1868 41.8335 21.5881 42.4383 19.9242 42.4383C19.2144 42.4383 18.4911 42.3309 17.7812 42.1C14.1388 40.918 12.1387 36.9896 13.3223 33.3458C14.506 29.7051 18.4338 27.705 22.0748 28.887C24.453 29.6604 26.1304 31.6026 26.6787 33.8711C27.0096 35.2403 27.7912 36.5877 29.1311 37.0226C30.5247 37.4749 32.0064 36.799 32.9866 35.7099C33.8669 34.7319 34.9484 33.9391 36.1659 33.3966C37.5058 32.7995 38.6101 31.5994 38.6101 30.1325C38.6101 28.7259 37.5721 27.568 36.3738 26.8315C34.3853 25.6093 33.0554 23.4137 33.0554 20.912C33.0554 17.0818 36.1706 13.9672 40.0006 13.9672ZM40.0032 16.7458C37.704 16.7458 35.8341 18.6148 35.8341 20.9123C35.8341 23.2114 37.704 25.0764 40.0032 25.0764C42.3024 25.0764 44.1698 23.2114 44.1698 20.9123C44.1698 18.6148 42.3023 16.7458 40.0032 16.7458ZM59.9864 28.5488C62.9464 28.5158 65.719 30.3905 66.6808 33.3485C67.2543 35.1124 67.1048 36.9951 66.2619 38.6475C65.4191 40.2999 63.985 41.527 62.2195 42.1006C61.5129 42.3301 60.7866 42.4413 60.0668 42.4413C58.9845 42.4413 57.9096 42.1868 56.9204 41.6815C55.9701 41.1968 55.1611 40.516 54.5371 39.6906C54.2138 39.2629 53.6655 39.0392 53.1556 39.205C52.5639 39.3972 51.9285 39.0732 51.7367 38.4814L51.5739 37.979C51.3822 37.3878 51.7062 36.7532 52.2974 36.5616C52.8066 36.3965 53.119 35.8945 53.1298 35.3593C53.1882 32.4851 55.0429 29.8251 57.9262 28.887C58.6095 28.6655 59.3033 28.5564 59.9864 28.5488ZM19.9345 31.3273C18.1774 31.3273 16.5394 32.4477 15.9675 34.2081C15.2577 36.3925 16.4561 38.746 18.6438 39.4559C20.8299 40.1641 23.1843 38.9674 23.8942 36.7796C24.6041 34.5969 23.404 32.2393 21.2179 31.5294C20.7923 31.39 20.3585 31.3273 19.9345 31.3273ZM60.0719 31.3273C59.6463 31.3273 59.2117 31.3938 58.7861 31.5319C56.6033 32.2417 55.4007 34.5952 56.1122 36.7796C56.4547 37.8385 57.1897 38.6997 58.1822 39.205C59.1743 39.7102 60.3027 39.8023 61.3613 39.4589C61.3621 39.4587 61.3626 39.458 61.3626 39.4572C61.3626 39.4564 61.3631 39.4557 61.3638 39.4555C62.4206 39.1146 63.2829 38.3764 63.7881 37.386C64.2934 36.3935 64.383 35.2653 64.0389 34.208C63.467 32.4475 61.8291 31.3273 60.0719 31.3273ZM40.0006 35.903C36.6308 35.903 33.8906 38.6463 33.8906 42.0177C33.8906 45.3857 36.6308 48.1275 40.0006 48.1275C43.372 48.1275 46.1154 45.3857 46.1154 42.0177C46.1154 38.6463 43.372 35.903 40.0006 35.903ZM31.0149 52.0243C31.3805 51.521 32.085 51.4094 32.5882 51.7751L33.011 52.0823C33.5143 52.448 33.6258 53.1524 33.2602 53.6557C32.9454 54.089 32.988 54.6789 33.2939 55.1185C34.9357 57.478 34.9973 60.7186 33.216 63.1718C31.8594 65.0404 29.7353 66.0331 27.5858 66.0331C26.1694 66.0331 24.7419 65.601 23.5117 64.7084C20.4146 62.4558 19.7282 58.1054 21.9775 55.007C23.068 53.5058 24.6765 52.5202 26.5118 52.231C27.5636 52.0639 28.6197 52.1408 29.6136 52.4435C30.126 52.5995 30.7002 52.4577 31.0149 52.0243ZM47.418 51.7743C47.9209 51.4091 48.6247 51.521 48.9895 52.0242C49.3036 52.4574 49.8772 52.5995 50.3894 52.4445C53.1425 51.6113 56.2428 52.5532 58.026 55.0067C60.2769 58.1071 59.5857 62.4572 56.4869 64.7081C55.2899 65.5791 53.8755 66.0352 52.4225 66.0352C52.0568 66.0352 51.6884 66.0069 51.3194 65.9499C49.4873 65.6606 47.8763 64.6742 46.7874 63.1714C45.0046 60.7198 45.0668 57.4799 46.7075 55.1207C47.0133 54.6811 47.0557 54.0915 46.741 53.6583C46.3753 53.1549 46.487 52.4503 46.9905 52.0846L47.418 51.7743ZM27.6053 54.9214C27.3858 54.9214 27.1665 54.9403 26.9453 54.9752C25.8464 55.1481 24.8777 55.7415 24.2228 56.6409C22.8745 58.5011 23.2871 61.1101 25.1457 62.4633C27.0043 63.8115 29.6168 63.399 30.9683 61.5405C32.3182 59.6803 31.9023 57.0695 30.0454 55.718C29.3256 55.1943 28.4764 54.9214 27.6053 54.9214ZM52.4005 54.9241C51.5509 54.9241 50.696 55.1828 49.9579 55.7179C48.101 57.0695 47.6859 59.6818 49.0374 61.5405C49.6924 62.4415 50.6563 63.0316 51.7552 63.2061C52.8557 63.3804 53.9582 63.1166 54.8577 62.4633C56.7162 61.1135 57.1264 58.5011 55.7782 56.6409C54.9619 55.5188 53.6905 54.9241 52.4005 54.9241Z" fill="#FEFEFE"/>
<defs>
<linearGradient id="paint0_linear_209_339" x1="26.9514" y1="54.9737" x2="52.1718" y2="27.8346" gradientUnits="userSpaceOnUse">
<stop stop-color="#3B6BB2"/>
<stop offset="1" stop-color="#22B3C1"/>
</linearGradient>
</defs>
</svg>
