<svg width="80" height="80" viewBox="0 0 80 80" fill="none" xmlns="http://www.w3.org/2000/svg">
<rect width="80" height="80" rx="12" fill="#70B098"/>
<path d="M46.6254 40L25.9267 60.6987C25.4917 61.1339 24.9752 61.4791 24.4068 61.7146C23.8384 61.9502 23.2292 62.0715 22.6139 62.0716C21.3712 62.0718 20.1794 61.5783 19.3006 60.6998C18.4218 59.8213 17.9279 58.6296 17.9277 57.387C17.9275 56.1444 18.421 54.9525 19.2995 54.0737L40.0004 33.375M53.2504 46.625L62.0837 37.7917M60.9796 38.8958L56.7528 34.6691C55.9245 33.841 55.459 32.7178 55.4587 31.5465V30.7868C55.4585 29.6156 54.993 28.4923 54.1647 27.6643L50.5054 24.005C48.0213 21.5214 44.6527 20.1258 41.1399 20.125H33.3754L36.1204 22.87C38.6046 25.3546 40.0002 28.7242 40.0004 32.2377V35.5833L44.4171 40H47.0052C48.1765 40.0003 49.2997 40.4657 50.1278 41.2941L54.3546 45.5208" stroke="white" stroke-width="4.41667" stroke-linecap="round" stroke-linejoin="round"/>
</svg>
