<svg width="80" height="80" viewBox="0 0 80 80" fill="none" xmlns="http://www.w3.org/2000/svg">
<g clip-path="url(#clip0_209_316)">
<path fill-rule="evenodd" clip-rule="evenodd" d="M0 0H80V80H0V0ZM52.3545 13.3175C51.6667 13.4339 51.1376 14.0741 51.1005 14.7619C51.0794 15.0635 51.164 15.3651 51.3069 15.6296C51.5767 16.1005 52.1111 16.4021 52.6508 16.4127C53.3386 16.4339 54.0317 16.4656 54.709 16.6085C55.8889 16.8254 57.0265 17.2698 58.0741 17.8571C58.9206 18.3333 59.6984 18.9312 60.3809 19.6243C61.963 21.1693 63.0159 23.2328 63.4074 25.4021C63.5344 26.0847 63.5608 26.7778 63.6085 27.4656C63.6402 28.0212 64.0106 28.5397 64.5238 28.7619C64.8307 28.8889 65.1746 28.9418 65.4974 28.8571C65.9894 28.7566 66.4074 28.3862 66.5979 27.9206C66.7513 27.5767 66.6984 27.1905 66.6878 26.8254C66.5979 23.9048 65.545 21.037 63.7566 18.7302C62.5503 17.1905 61.0265 15.8942 59.2963 14.9735C57.5079 13.9947 55.4974 13.4339 53.4656 13.3228C53.0952 13.3016 52.7196 13.2434 52.3545 13.3175ZM30.2381 15.6772C28.7143 16.328 27.5291 17.8042 27.3704 19.4709C27.3122 21.6296 27.3651 23.7937 27.3386 25.9577C26.3757 25.963 25.381 25.8783 24.4497 26.1958C23.1005 26.6455 21.9947 27.7513 21.5238 29.0899C21.164 30.1058 21.1693 31.2487 21.5397 32.2645C21.8413 33.1058 22.4127 33.8413 23.1217 34.3862C23.6243 34.7989 24.2328 35.0635 24.8624 35.2116C25.6772 35.3862 26.5185 35.3333 27.3439 35.3439V43.9153C27.3545 45.1111 27.3122 46.3175 27.4021 47.5132C27.619 50.3175 28.4444 53.0847 29.8995 55.4974C31.381 58.0794 33.5079 60.2698 36 61.8783C38.9524 63.7989 42.4603 64.8413 45.9788 64.8307C46.8783 64.8677 47.7778 64.8307 48.6772 64.8413H50.6349C51.6032 64.8519 52.6032 64.5979 53.3968 64.0212C53.8095 63.7249 54.1958 63.3862 54.4974 62.9735C55.2011 62.0847 55.5397 60.9153 55.4444 59.7884C55.381 58.8783 55.0423 57.9894 54.4709 57.2804C53.7937 56.4392 52.8519 55.7884 51.7884 55.5661C51.3016 55.455 50.8095 55.4603 50.3175 55.4497C48.8677 55.4444 47.4233 55.4603 45.9788 55.4392C43.6825 55.4339 41.418 54.5079 39.7354 52.9577C38.9947 52.254 38.3333 51.455 37.8571 50.5503C37.254 49.4497 36.8942 48.2275 36.7672 46.9841C36.7037 46.3492 36.7249 45.7143 36.7196 45.0794C36.7143 41.836 36.7196 38.5873 36.7196 35.3439H47.7249C48.4656 35.328 49.2222 35.1799 49.8624 34.7936C50.7831 34.2011 51.4127 33.2275 51.672 32.1746C51.873 31.3704 51.9365 30.5132 51.7672 29.6931C51.4815 28.2751 50.4762 27.0529 49.1905 26.4127C48.5767 26.1005 47.8836 25.9577 47.1958 25.9683C43.7037 25.9471 40.2169 25.9524 36.7249 25.9577C36.6984 23.9894 36.746 22.0212 36.7037 20.0529C36.7143 19.6772 36.6614 19.3069 36.5873 18.9365C36.1746 17.1693 34.6561 15.7143 32.8624 15.3862C31.9841 15.2328 31.0582 15.3175 30.2381 15.6772ZM52.4603 19.5556C51.7566 19.6296 51.1693 20.2487 51.1058 20.9524C51.0582 21.3545 51.2011 21.7566 51.4444 22.0741C51.7566 22.4603 52.2593 22.6667 52.7513 22.6614C53.6614 22.6561 54.5608 22.963 55.2963 23.4921C56.3915 24.2328 57.1534 25.4603 57.3069 26.7778C57.3492 27.1852 57.3175 27.619 57.4974 28C57.7672 28.619 58.4868 28.9841 59.1481 28.8836C59.6667 28.8042 60.1323 28.4392 60.3333 27.9524C60.5132 27.5873 60.455 27.1693 60.4339 26.7778C60.3439 25.4815 59.9206 24.2063 59.2116 23.1164C57.9683 21.1799 55.8307 19.8466 53.5397 19.5979C53.1799 19.5608 52.8201 19.5026 52.4603 19.5556Z" fill="#FF4800"/>
<path d="M52.3546 13.3175C52.7197 13.2434 53.0953 13.3016 53.4657 13.3228C55.4974 13.4339 57.508 13.9947 59.2964 14.9736C61.0265 15.8942 62.5503 17.1905 63.7567 18.7302C65.5451 21.0371 66.598 23.9048 66.6879 26.8254C66.6985 27.1905 66.7514 27.5767 66.6033 27.9207C66.4075 28.3863 65.9895 28.7566 65.4974 28.8572C65.1747 28.9418 64.8308 28.8889 64.5239 28.7619C64.0107 28.5397 63.6403 28.0212 63.6085 27.4656C63.5609 26.7778 63.5345 26.0847 63.4075 25.4021C63.016 23.2328 61.963 21.1693 60.381 19.6244C59.6985 18.9312 58.9207 18.3334 58.0742 17.8572C57.0265 17.2699 55.889 16.8254 54.7091 16.6085C54.0318 16.4656 53.3387 16.4339 52.6509 16.4127C52.1112 16.4021 51.5768 16.1006 51.307 15.6297C51.1641 15.3651 51.0794 15.0635 51.1006 14.7619C51.1376 14.0741 51.6667 13.4339 52.3546 13.3175ZM30.2382 15.6773C31.0583 15.3175 31.9842 15.2328 32.8625 15.3863C34.6562 15.7143 36.1747 17.1693 36.5874 18.9365C36.6615 19.3069 36.7144 19.6773 36.7038 20.0529C36.7461 22.0212 36.6985 23.9894 36.7249 25.9577C40.217 25.9524 43.7038 25.9471 47.1958 25.963C47.8837 25.9577 48.5768 26.1006 49.1906 26.4127C50.4763 27.0529 51.4816 28.2752 51.7673 29.6931C51.9366 30.5133 51.8731 31.3704 51.672 32.1746C51.4128 33.2275 50.7832 34.2011 49.8625 34.7937C49.2223 35.1799 48.4657 35.3281 47.7249 35.3439H36.7197C36.7197 38.5873 36.7144 41.836 36.7197 45.0794C36.7249 45.7143 36.7038 46.3492 36.7673 46.9842C36.889 48.2275 37.2541 49.4498 37.8572 50.5503C38.3334 51.4551 38.9948 52.254 39.7355 52.9577C41.4181 54.508 43.6826 55.4339 45.9789 55.4392C47.4234 55.4603 48.8678 55.4445 50.3175 55.4498C50.8096 55.4603 51.3017 55.4551 51.7884 55.5662C52.8519 55.7884 53.7937 56.4392 54.471 57.2804C55.0424 57.9894 55.381 58.8783 55.4445 59.7884C55.5398 60.9154 55.2011 62.0847 54.4974 62.9736C54.1958 63.3863 53.8096 63.7249 53.3969 64.0212C52.6033 64.5979 51.6033 64.8519 50.635 64.8413H48.6773C47.7779 64.8307 46.8784 64.8678 45.9789 64.8307C42.4604 64.8413 38.9525 63.799 36.0001 61.8783C33.508 60.2699 31.381 58.0794 29.8996 55.4974C28.4445 53.0847 27.6191 50.3175 27.4022 47.5133C27.3123 46.3175 27.3546 45.1111 27.344 43.9154V35.3439C26.5186 35.3334 25.6773 35.381 24.8625 35.2117C24.2329 35.0635 23.6244 34.799 23.1218 34.3863C22.4128 33.8413 21.8414 33.1058 21.5345 32.2646C21.1694 31.2487 21.1641 30.1058 21.5239 29.09C21.9948 27.7513 23.1006 26.6455 24.4498 26.1958C25.381 25.8783 26.3757 25.963 27.3387 25.9577C27.3652 23.7937 27.3123 21.6297 27.3705 19.4709C27.5292 17.8043 28.7144 16.3281 30.2382 15.6773Z" fill="white"/>
<path d="M52.4603 19.5557C52.8201 19.5027 53.1799 19.5609 53.5397 19.598C55.8307 19.8467 57.9682 21.18 59.2116 23.1165C59.9206 24.2064 60.3439 25.4763 60.4338 26.7726C60.455 27.1694 60.5132 27.5874 60.3333 27.9525C60.1322 28.4392 59.6666 28.8043 59.1481 28.8837C58.4867 28.9842 57.7672 28.6191 57.4973 28.0001C57.3174 27.6191 57.3492 27.1853 57.3068 26.7779C57.1534 25.4604 56.3915 24.2329 55.2963 23.4922C54.5608 22.9631 53.6613 22.6562 52.7513 22.6615C52.2592 22.6668 51.7566 22.4604 51.4444 22.0742C51.201 21.7567 51.0582 21.3493 51.1058 20.9525C51.1693 20.2488 51.7513 19.6297 52.4603 19.5557Z" fill="white"/>
</g>
<defs>
<clipPath id="clip0_209_316">
<rect width="80" height="80" rx="12" fill="white"/>
</clipPath>
</defs>
</svg>
